<svg xmlns="http://www.w3.org/2000/svg" width="36.614" height="38.314" viewBox="0 0 36.614 38.314"><path d="M24.9,28.016q.707.346,1.469.756.877.474,1.646.97t1.366.943a3.089,3.089,0,0,1,.818.825l-.15.212q-1.4-.428-2.51-.755t-2.2-.6q-1.091-.276-2.316-.5t-2.835-.495l-.052-.135q.94-1.172,1.656-2.122t1.342-1.886q.626-.935,1.286-1.98t1.469-2.359l.254.057a3.1,3.1,0,0,1-.056,1.16q-.145.731-.39,1.6T25.1,25.491q-.341.922-.68,1.748l.021.054A13.748,13.748,0,1,0,8.109,6.447l2.7,6.969-.369,1.244L7.648,7.33,7.532,7.3A13.724,13.724,0,0,0,6.459,9.375l3.788,6.517-.169,1.287-3.9-6.8-.078-.01a13.629,13.629,0,0,0-.537,2.359l4.748,5.829.034,1.3L5.454,13.782c-.016.268-.026.537-.026.809H4.586c0-.2.005-.4.013-.593L.18,20.116l-.034-1.3L4.73,12.547a14.466,14.466,0,0,1,.38-1.834L0,15.852l.17-1.287L5.655,9.111a14.536,14.536,0,0,1,.7-1.473L.693,11.773l.369-1.244L7.374,5.971l.032.01A14.588,14.588,0,1,1,24.9,28.016Z" transform="translate(5.282 38.315) rotate(-99)" fill="#eae1d0"/></svg>